<?xml version="1.0" standalone="no"?>
<!DOCTYPE svg PUBLIC "-//W3C//DTD SVG 20010904//EN" "http://www.w3.org/TR/2001/REC-SVG-20010904/DTD/svg10.dtd">
<svg xmlns="http://www.w3.org/2000/svg" version="1.0" width="920" height="674" viewBox="0 0 920.000000 674.000000" preserveAspectRatio="xMidYMid meet">

<g transform="translate(0.000000,674.000000) scale(0.100000,-0.100000)" fill="#000000" stroke="none">
<path d="M1467 6677 c-34 -133 -49 -304 -44 -472 9 -268 58 -495 155 -717 11 -25 37 -107 57 -182 19 -75 61 -207 91 -294 30 -86 57 -164 60 -173 7 -21 -164 -184 -441 -417 -238 -201 -332 -292 -611 -592 -272 -292 -376 -423 -429 -544 -87 -197 4 -285 285 -274 82 4 129 1 164 -9 62 -18 88 -14 206 33 88 35 105 38 230 44 74 3 146 11 160 18 14 6 73 23 132 37 109 26 275 82 517 174 74 28 136 50 138 48 9 -9 -120 -283 -186 -396 -55 -92 -45 -90 114 30 50 37 118 93 153 124 l62 57 0 -50 c0 -27 3 -82 6 -123 l6 -74 -75 -58 c-41 -32 -82 -73 -92 -92 -21 -39 -23 -15 41 -565 51 -432 52 -625 6 -883 -17 -98 -57 -291 -87 -429 -31 -138 -54 -252 -52 -254 2 -2 37 14 78 37 109 60 288 139 315 139 2 0 -28 -44 -66 -98 -68 -97 -157 -243 -238 -389 -49 -90 -106 -169 -193 -265 -33 -37 -56 -68 -50 -68 15 0 126 126 182 208 28 39 82 129 121 200 57 103 185 312 192 312 0 0 1 -100 1 -223 0 -226 25 -479 48 -494 6 -4 8 5 4 24 -25 123 -40 301 -41 479 -1 188 0 203 19 224 29 32 117 81 261 145 292 129 398 180 520 249 70 41 130 78 132 84 2 6 -48 89 -111 184 -257 390 -455 753 -577 1060 -67 170 -120 228 -209 228 -25 0 -63 -9 -86 -20 -40 -20 -128 -100 -109 -100 6 0 23 14 40 31 35 37 114 79 149 79 83 0 137 -60 202 -225 100 -255 308 -644 516 -966 59 -92 107 -169 107 -172 0 -2 -107 -62 -237 -132 -259 -139 -409 -227 -490 -287 -29 -21 -92 -52 -140 -70 -48 -17 -139 -58 -202 -90 -63 -32 -115 -57 -117 -55 -2 1 21 111 50 242 60 270 100 498 116 659 13 132 7 224 -55 770 -51 454 -55 420 58 510 l72 57 8 -41 c7 -36 27 -57 27 -29 0 20 59 133 85 162 l25 28 72 -26 c40 -15 107 -33 148 -41 41 -8 103 -25 138 -36 l62 -22 0 -74 c0 -40 4 -82 10 -92 11 -20 44 -32 135 -51 38 -7 65 -18 74 -31 8 -12 21 -18 32 -15 21 6 35 -8 43 -43 5 -20 0 -29 -26 -45 -40 -25 -54 -75 -39 -133 11 -39 14 -41 66 -52 30 -6 57 -15 60 -20 3 -4 14 -53 25 -107 25 -119 54 -183 95 -202 41 -20 179 0 312 44 93 31 306 131 393 184 41 25 60 27 60 6 0 -8 36 -111 80 -230 l79 -215 -87 -113 c-285 -364 -482 -664 -553 -840 -13 -32 -47 -86 -77 -120 -80 -93 -227 -285 -310 -405 -106 -155 -224 -343 -219 -348 4 -5 86 115 132 194 16 26 26 32 55 33 19 0 55 6 80 12 60 16 62 44 5 72 -22 11 -42 21 -44 22 -9 5 322 433 335 433 12 0 -12 -84 -48 -170 -51 -120 -200 -569 -195 -590 1 -8 42 104 90 250 100 305 133 380 208 470 60 73 240 262 245 257 2 -2 -13 -52 -32 -111 -46 -144 -94 -330 -94 -368 0 -17 7 -39 16 -49 15 -17 12 -23 -37 -95 -30 -43 -99 -125 -155 -183 -92 -98 -144 -160 -144 -175 0 -16 18 -3 35 27 10 17 60 75 110 127 90 95 163 184 203 249 21 34 21 34 1 59 -23 30 -21 46 27 225 41 148 139 442 160 474 22 36 75 46 198 40 107 -6 209 -26 228 -45 5 -5 13 -34 17 -65 4 -31 13 -63 20 -71 11 -13 9 -17 -15 -26 -67 -26 -178 -77 -295 -136 -128 -65 -208 -124 -234 -173 -8 -16 -18 -92 -25 -186 -11 -155 -33 -381 -46 -468 -5 -29 -3 -39 4 -32 12 12 38 235 56 482 12 173 14 183 40 217 15 20 54 55 88 77 72 49 279 150 428 209 58 23 109 45 113 49 9 9 -111 360 -258 761 -231 627 -314 905 -322 1086 -3 56 -2 108 3 117 16 29 841 437 1214 602 250 110 369 155 742 284 189 66 381 133 427 150 138 52 361 158 559 266 187 102 629 365 731 434 117 79 117 121 0 121 -37 0 -71 -4 -74 -10 -4 -6 18 -7 57 -4 97 8 114 -18 46 -69 -71 -55 -681 -418 -808 -482 l-55 -28 -29 39 c-17 22 -82 91 -147 155 l-116 116 171 5 c133 4 200 12 301 33 144 30 336 86 338 98 1 5 -43 25 -98 46 -106 40 -260 114 -269 130 -8 12 70 29 171 37 l78 6 34 -36 c39 -41 51 -39 51 9 0 39 -4 37 135 59 273 43 670 67 769 46 111 -23 119 -46 91 -273 -27 -222 -87 -884 -136 -1489 -13 -170 -8 -305 13 -366 28 -76 78 -146 195 -273 182 -197 304 -368 302 -423 -1 -60 -353 -285 -884 -563 -612 -322 -932 -463 -1330 -588 -82 -26 -168 -54 -190 -62 -61 -22 -206 -110 -465 -283 -264 -176 -293 -193 -319 -185 -21 6 -220 241 -303 356 -136 190 -238 448 -363 918 -79 297 -128 513 -180 789 -48 254 -63 306 -115 391 -32 51 -40 56 -95 52 -58 -5 -345 -158 -345 -184 0 -5 15 1 33 12 137 90 286 161 336 161 46 0 114 -133 141 -278 76 -392 110 -550 170 -789 174 -688 289 -959 520 -1228 33 -38 60 -73 60 -76 0 -3 -21 -21 -47 -40 -71 -50 -221 -203 -290 -295 -88 -115 -196 -285 -187 -292 4 -4 8 -2 11 4 10 28 171 259 235 337 69 85 168 179 251 242 l39 29 62 -67 c34 -37 69 -67 77 -67 18 0 162 90 341 213 158 108 305 200 382 239 67 34 236 90 236 79 0 -4 -12 -18 -26 -32 -46 -43 -210 -251 -278 -354 -94 -142 -265 -485 -301 -605 -16 -54 14 -3 45 75 47 121 171 369 235 470 75 120 209 296 295 388 l69 74 137 47 c254 88 583 233 899 396 259 134 519 272 529 281 6 5 14 9 18 9 10 0 62 -79 56 -86 -3 -2 -83 -31 -179 -64 -95 -33 -178 -65 -183 -71 -8 -9 -6 -10 7 -6 275 98 380 127 484 139 108 11 114 11 140 -8 16 -12 44 -43 63 -71 35 -51 35 -51 165 -93 176 -57 285 -100 444 -176 74 -35 136 -62 139 -59 8 7 8 7 -143 77 -177 82 -289 127 -442 174 -104 32 -123 42 -138 67 -28 47 -73 94 -102 106 -21 8 -53 8 -130 -2 l-102 -13 -30 47 -29 48 141 82 c240 138 429 272 451 320 21 45 -102 229 -284 423 -225 241 -253 311 -231 589 55 683 115 1348 147 1602 15 119 15 134 0 168 -12 29 -26 43 -63 59 -42 19 -65 21 -198 20 -175 -1 -437 -24 -617 -53 -129 -21 -148 -20 -148 7 0 25 -66 146 -124 227 -31 43 -56 82 -56 86 0 4 42 36 93 69 52 34 126 89 165 122 113 95 182 143 364 252 176 107 278 186 490 381 187 173 303 308 366 427 46 86 56 121 47 161 -10 45 -23 34 -18 -15 13 -111 -147 -327 -433 -588 -209 -190 -280 -244 -464 -355 -166 -101 -249 -159 -385 -271 -91 -75 -543 -374 -692 -458 -181 -103 -398 -206 -655 -313 -247 -103 -297 -127 -428 -207 -121 -73 -166 -93 -325 -139 -71 -21 -191 -66 -265 -100 -74 -35 -182 -77 -240 -95 -57 -18 -130 -45 -161 -61 -141 -71 -430 -177 -625 -229 -68 -18 -145 -46 -182 -67 -51 -28 -80 -37 -143 -44 -65 -6 -89 -14 -136 -43 -40 -24 -87 -42 -148 -55 -50 -11 -216 -66 -370 -122 -374 -135 -346 -128 -550 -144 -256 -20 -246 -18 -505 -115 -129 -49 -287 -103 -350 -121 -63 -17 -153 -43 -199 -56 -69 -20 -96 -23 -150 -18 -80 8 -162 -9 -287 -60 l-87 -35 -61 16 c-45 12 -84 15 -149 10 -165 -11 -292 23 -318 86 -46 111 69 304 382 637 90 96 198 213 240 260 98 111 157 166 430 398 124 105 275 238 335 296 l110 105 42 -81 c61 -121 90 -151 159 -170 110 -30 218 -40 413 -39 581 2 1324 165 2025 444 547 218 1166 544 1564 823 194 137 479 363 567 450 143 143 179 268 128 453 -8 28 -19 52 -24 52 -5 0 -2 -19 7 -42 11 -29 17 -77 17 -143 1 -92 -1 -105 -30 -165 -53 -110 -122 -176 -449 -427 -340 -260 -656 -454 -1135 -694 -591 -296 -1165 -503 -1730 -623 -395 -84 -607 -109 -930 -110 -261 -1 -363 10 -457 49 -39 17 -92 95 -141 210 -31 74 -152 419 -152 435 0 4 66 7 146 8 486 5 1043 130 1754 394 118 44 352 127 520 183 347 117 430 151 620 248 74 38 254 125 399 194 251 118 453 222 586 301 159 93 287 176 278 179 -6 2 -59 -27 -119 -65 -176 -112 -334 -198 -574 -315 -124 -60 -358 -173 -520 -252 -316 -154 -367 -174 -705 -285 -121 -40 -319 -110 -440 -155 -740 -277 -1293 -405 -1769 -409 l-180 -1 -27 96 c-15 53 -46 142 -69 198 -77 195 -112 351 -129 589 -14 181 14 482 54 585 4 9 3 17 -3 17 -5 0 -17 -28 -25 -63z m5670 -1460 c75 -107 122 -196 134 -261 7 -31 9 -59 6 -62 -3 -4 -34 18 -69 48 -88 76 -119 96 -237 154 l-104 51 104 71 c57 39 106 72 109 72 3 0 28 -33 57 -73z m-162 -141 c112 -54 195 -108 195 -126 0 -6 -21 -10 -47 -10 -27 -1 -77 -7 -113 -15 -86 -19 -81 -20 -120 18 -73 71 -94 182 -35 186 6 1 60 -23 120 -53z m-169 -3 c19 -91 73 -158 175 -218 57 -33 232 -112 288 -130 33 -10 18 -19 -89 -48 -229 -64 -453 -93 -617 -81 -98 7 -114 0 -69 -30 43 -28 200 -182 249 -244 l47 -60 -26 -17 c-24 -15 -29 -15 -92 6 -37 12 -107 42 -156 66 -49 24 -91 41 -94 39 -2 -3 9 -24 26 -48 45 -66 72 -124 72 -155 0 -27 -6 -31 -122 -77 -68 -27 -219 -82 -338 -123 -118 -41 -284 -99 -368 -129 -84 -30 -157 -54 -161 -54 -4 0 16 46 45 103 60 117 110 254 120 326 8 61 -18 124 -93 222 l-50 67 78 46 c84 50 192 100 419 191 162 66 582 274 675 334 33 22 63 40 67 40 4 1 10 -11 14 -26z m-1168 -728 c34 -55 37 -66 37 -135 -1 -65 -7 -90 -44 -182 -24 -58 -64 -144 -90 -189 l-46 -83 -160 -68 c-88 -37 -161 -68 -162 -68 -2 0 -3 11 -3 24 0 14 -5 37 -10 52 -9 22 -6 34 19 73 48 77 56 113 33 163 -10 24 -43 69 -72 101 -51 56 -52 58 -39 90 19 47 65 125 109 183 32 43 46 53 98 68 41 13 65 15 77 9 33 -19 117 -108 136 -145 24 -47 24 -75 -1 -145 -23 -67 -25 -89 -5 -51 29 52 45 135 33 171 -14 43 -70 115 -119 154 l-40 32 73 39 73 39 33 -36 c19 -20 50 -63 70 -96z m-436 -28 c-37 -39 -122 -189 -122 -215 0 -15 18 -44 48 -77 52 -57 82 -110 82 -145 0 -30 -54 -129 -97 -180 -20 -23 -33 -44 -29 -47 3 -3 15 6 27 20 29 38 39 34 39 -18 0 -42 -2 -46 -40 -65 -21 -11 -44 -20 -50 -20 -6 0 -10 53 -11 148 -1 81 -5 181 -10 222 -5 48 -6 -7 -3 -153 l3 -228 -122 -56 c-67 -32 -309 -150 -537 -264 -340 -169 -418 -212 -428 -233 -29 -64 1 -261 79 -516 23 -74 44 -147 46 -161 5 -24 -5 -30 -179 -116 -244 -122 -369 -163 -496 -163 -96 0 -102 10 -157 240 -17 72 -28 85 -83 95 -53 10 -62 21 -62 75 0 81 16 91 145 95 131 3 365 50 365 73 0 5 -37 29 -82 54 -185 104 -301 114 -420 39 l-47 -30 -88 22 -88 22 -3 88 -3 88 -47 20 c-26 12 -88 29 -137 39 -103 21 -199 51 -265 83 -37 18 -45 26 -42 46 1 13 32 86 69 162 57 120 69 139 90 139 29 0 136 35 438 144 132 48 287 98 344 112 70 17 117 34 148 55 34 24 62 33 116 40 101 12 116 17 167 49 27 17 98 43 176 64 73 20 194 58 270 86 76 27 139 48 141 46 2 -2 14 -45 27 -97 30 -117 46 -246 46 -367 0 -67 3 -93 12 -90 16 6 83 180 113 296 14 53 33 152 43 219 9 68 20 123 23 123 8 0 117 -186 181 -307 29 -57 57 -103 61 -103 5 0 7 43 5 95 -3 82 -1 93 10 78 19 -25 55 -107 77 -173 24 -74 32 -80 39 -29 12 84 27 415 25 521 -2 59 0 111 4 114 10 10 201 73 206 68 3 -2 -5 -14 -17 -27z m1378 -46 c52 -22 103 -41 113 -41 43 0 7 -23 -143 -88 -4 -1 -12 17 -19 40 -7 24 -26 65 -43 92 -16 27 -24 46 -16 43 7 -3 56 -24 108 -46z m-1593 -278 c-4 -148 -10 -284 -15 -303 l-8 -35 -8 30 c-11 45 -95 215 -106 215 -6 0 -10 -39 -10 -92 l0 -93 -74 135 c-40 74 -92 164 -115 200 l-41 65 28 12 c15 7 72 26 126 43 55 18 125 45 155 60 31 16 60 29 65 30 5 0 6 -111 3 -267z m-402 50 c-17 -167 -91 -463 -135 -542 -4 -8 -10 26 -14 80 -12 159 -42 335 -72 412 -3 10 12 21 53 36 32 12 83 35 113 51 30 16 57 29 59 30 2 0 0 -30 -4 -67z m-2085 -652 c0 -5 -29 -69 -64 -142 -85 -176 -84 -174 -46 -194 32 -17 32 -19 -6 -70 -13 -17 -32 -50 -42 -73 -27 -60 -33 -39 -39 141 -3 81 -8 147 -10 147 -3 0 -39 -31 -81 -70 -74 -66 -244 -200 -256 -200 -3 0 13 33 35 73 47 86 111 218 146 305 16 39 31 62 42 63 24 1 305 26 314 28 4 0 7 -3 7 -8z m877 -655 l37 -13 -80 -12 c-43 -7 -112 -21 -152 -32 -87 -23 -88 -23 -96 -4 -3 10 9 23 38 40 76 45 164 52 253 21z m134 -62 c38 -20 69 -40 69 -44 0 -4 -46 -17 -102 -29 -120 -26 -258 -39 -258 -24 0 17 44 75 72 96 24 18 75 32 132 36 10 0 49 -15 87 -35z m-260 -19 c-17 -20 -34 -47 -37 -60 -9 -37 -29 -30 -47 17 -9 23 -16 43 -14 44 3 3 108 32 121 33 4 1 -6 -15 -23 -34z m1089 -1050 c83 -231 190 -544 190 -556 0 -4 -16 -13 -36 -19 -30 -10 -39 -10 -51 2 -17 18 -33 117 -33 211 0 78 -20 137 -47 137 -26 0 -110 -51 -166 -100 -44 -39 -57 -44 -129 -56 -97 -15 -115 -30 -148 -124 -20 -57 -37 -79 -140 -185 -64 -66 -133 -140 -154 -165 l-39 -45 7 45 c18 115 149 356 339 622 133 186 327 441 332 436 2 -2 36 -93 75 -203z m43 -260 c4 -8 9 -48 13 -89 l7 -74 -54 14 c-30 8 -82 17 -116 21 -35 3 -63 9 -63 13 0 11 68 69 119 102 49 31 86 36 94 13z m-1100 -93 l25 -39 -86 -51 c-106 -62 -312 -165 -445 -221 -150 -64 -304 -137 -338 -162 -29 -21 -31 -21 -21 -2 26 48 153 141 342 248 122 70 484 265 491 265 4 0 18 -17 32 -38z m-1 -953 c35 -18 39 -23 25 -31 -18 -10 -119 -28 -125 -23 -5 5 42 75 51 75 4 0 26 -9 49 -21z"/>
<path d="M5180 4153 c0 -18 136 -150 166 -160 31 -11 74 -1 74 17 0 7 -6 8 -19 0 -36 -19 -51 -11 -136 71 -47 45 -85 77 -85 72z"/>
<path d="M3765 3659 c-61 -41 -195 -113 -200 -107 -1 2 -10 17 -19 33 l-17 30 6 -30 c4 -16 7 -34 8 -40 2 -12 -139 -61 -205 -70 l-48 -7 -1 43 -1 44 -8 -38 c-11 -60 -16 -62 -140 -48 -60 6 -117 14 -125 17 -8 4 -15 2 -15 -4 0 -14 40 -21 163 -28 l107 -7 0 -29 c0 -17 4 -27 10 -23 6 3 10 17 10 30 0 17 7 26 23 29 12 3 45 10 74 15 28 6 75 20 105 31 29 11 56 20 59 20 4 0 12 -13 19 -30 7 -16 16 -30 21 -30 4 0 2 15 -6 34 l-14 34 107 61 c117 68 159 97 151 105 -3 3 -32 -13 -64 -35z"/>
<path d="M2835 3020 c-17 -18 -8 -30 9 -12 4 4 22 12 39 19 l32 11 -31 1 c-19 1 -38 -7 -49 -19z"/>
<path d="M7970 6236 c-58 -60 -133 -132 -167 -159 -62 -50 -89 -87 -35 -49 85 62 318 293 310 310 -1 4 -50 -41 -108 -102z"/>
<path d="M7555 6249 c-61 -62 -138 -118 -228 -165 -45 -24 -76 -44 -69 -44 21 0 133 59 197 105 64 46 166 145 149 145 -5 0 -28 -18 -49 -41z"/>
<path d="M7726 6241 c-26 -27 -73 -61 -104 -77 -30 -15 -50 -30 -44 -32 26 -8 149 75 194 133 33 42 5 27 -46 -24z"/>
<path d="M7804 6219 c-27 -27 -73 -66 -102 -87 -30 -20 -49 -38 -42 -40 21 -7 213 159 199 173 -3 2 -27 -18 -55 -46z"/>
<path d="M1645 6219 c-16 -25 -17 -184 -2 -254 17 -80 61 -185 77 -185 6 0 -1 22 -14 48 -51 101 -73 230 -57 332 11 64 9 81 -4 59z"/>
<path d="M1774 6024 c-3 -19 -4 -54 -2 -77 5 -45 55 -157 70 -157 11 0 12 -2 -26 70 -30 57 -40 131 -23 178 5 13 4 22 -2 22 -5 0 -13 -16 -17 -36z"/>
<path d="M2011 5972 c-32 -45 -46 -115 -29 -148 7 -15 19 -30 27 -32 11 -4 10 1 -2 19 -30 42 -16 118 31 172 8 9 10 17 4 17 -6 0 -20 -13 -31 -28z"/>
<path d="M1866 5974 c-13 -33 -5 -91 18 -139 28 -56 35 -48 10 11 -9 22 -16 63 -16 92 0 55 -2 62 -12 36z"/>
<path d="M7581 5899 c-64 -55 -134 -104 -179 -126 -41 -21 -69 -39 -63 -41 21 -7 121 49 194 108 106 85 163 137 157 143 -3 3 -52 -35 -109 -84z"/>
<path d="M7332 5886 c-34 -29 -92 -70 -127 -91 -36 -21 -65 -42 -65 -47 0 -17 144 75 220 141 68 60 44 56 -28 -3z"/>
<path d="M7175 5885 c-27 -25 -80 -59 -117 -77 -37 -18 -68 -36 -68 -41 0 -9 62 16 116 48 46 27 145 114 129 114 -5 0 -32 -20 -60 -44z"/>
<path d="M7064 5899 c-37 -42 -156 -118 -227 -146 -44 -17 -64 -29 -52 -31 31 -7 199 85 262 143 32 30 53 54 47 55 -6 0 -19 -10 -30 -21z"/>
<path d="M7410 5864 c-58 -47 -185 -125 -232 -143 -16 -6 -28 -15 -28 -21 0 -24 218 104 295 173 57 51 31 44 -35 -9z"/>
<path d="M1654 5710 c13 -169 54 -316 104 -372 31 -36 30 -17 -2 31 -39 57 -72 180 -86 320 -11 118 -25 135 -16 21z"/>
<path d="M1860 5598 c1 -100 46 -268 71 -268 13 0 11 7 -6 33 -21 33 -45 144 -45 215 0 34 -4 62 -10 62 -5 0 -10 -19 -10 -42z"/>
<path d="M6700 5578 c-52 -47 -121 -83 -173 -93 -20 -4 -37 -11 -37 -16 0 -29 180 54 229 105 48 50 35 52 -19 4z"/>
<path d="M1780 5588 c0 -7 9 -54 19 -104 19 -92 47 -160 75 -183 22 -19 20 -4 -5 31 -27 37 -55 125 -64 201 -4 31 -11 60 -16 63 -5 3 -9 -1 -9 -8z"/>
<path d="M6825 5543 c-61 -48 -169 -108 -230 -129 -11 -3 -15 -8 -9 -11 33 -12 197 80 289 161 62 54 28 41 -50 -21z"/>
<path d="M6980 5540 c-41 -33 -103 -76 -137 -96 -74 -43 -78 -57 -6 -21 49 25 201 136 223 162 25 30 -7 12 -80 -45z"/>
<path d="M2450 5572 c0 -25 42 -105 58 -110 7 -2 1 13 -13 33 -14 21 -25 51 -25 66 0 16 -4 29 -10 29 -5 0 -10 -8 -10 -18z"/>
<path d="M6545 5559 c-22 -17 -79 -53 -128 -81 -48 -28 -85 -53 -83 -56 11 -10 266 147 266 164 0 10 -17 2 -55 -27z"/>
<path d="M1971 5520 c-1 -52 27 -113 55 -119 17 -3 16 0 -5 22 -13 15 -29 51 -36 84 l-13 58 -1 -45z"/>
<path d="M2590 5541 c0 -24 75 -109 87 -98 3 3 -9 19 -27 34 -18 15 -39 41 -46 58 -12 27 -13 28 -14 6z"/>
<path d="M2096 5528 c-10 -22 9 -135 25 -154 17 -21 23 -9 8 18 -7 12 -15 52 -19 88 -4 44 -9 59 -14 48z"/>
<path d="M7020 5475 c-136 -125 -240 -192 -355 -227 l-60 -18 48 5 c87 9 206 79 356 210 79 69 103 95 87 95 -3 0 -36 -29 -76 -65z"/>
<path d="M2280 5493 c0 -26 46 -83 68 -83 13 0 11 4 -6 16 -12 8 -31 32 -42 52 -15 30 -19 33 -20 15z"/>
<path d="M6015 5184 c-47 -39 -121 -74 -170 -81 -25 -3 -45 -10 -45 -15 0 -15 80 1 135 27 53 25 123 80 115 88 -3 3 -18 -6 -35 -19z"/>
<path d="M6072 5115 c-56 -40 -124 -81 -150 -91 -53 -19 -74 -34 -50 -34 28 0 151 69 242 135 49 36 83 65 75 64 -8 0 -60 -33 -117 -74z"/>
<path d="M6245 5118 c-38 -27 -99 -64 -134 -81 -67 -31 -72 -50 -7 -23 37 16 212 132 222 147 12 20 -14 6 -81 -43z"/>
<path d="M6280 5064 c-73 -48 -167 -97 -270 -142 -22 -9 -22 -11 -5 -11 38 -2 269 122 355 189 51 40 3 18 -80 -36z"/>
<path d="M5095 4654 c-33 -18 -75 -36 -93 -40 -34 -7 -54 -24 -27 -24 24 0 128 45 171 74 54 37 21 30 -51 -10z"/>
<path d="M5229 4634 c-31 -33 -188 -111 -256 -127 -29 -6 -53 -16 -53 -20 0 -22 181 43 258 92 51 33 102 81 85 81 -5 0 -20 -12 -34 -26z"/>
<path d="M5275 4553 c-72 -50 -160 -93 -240 -119 -38 -12 -60 -23 -49 -23 61 -2 276 97 333 154 29 29 5 22 -44 -12z"/>
<path d="M2000 3660 c-25 -10 -69 -19 -97 -19 -33 -1 -53 -5 -53 -12 0 -8 18 -10 59 -6 63 7 141 33 141 48 0 11 4 12 -50 -11z"/>
<path d="M1558 3616 c-54 -5 -98 -13 -98 -18 0 -8 59 -5 170 11 81 11 28 17 -72 7z"/>
<path d="M2030 3609 c-14 -6 -56 -17 -95 -24 -67 -12 -68 -13 -24 -14 51 -1 149 25 149 39 0 6 -1 10 -2 9 -2 0 -14 -5 -28 -10z"/>
<path d="M1545 3559 c-53 -15 -79 -17 -107 -10 -22 5 -38 5 -38 0 0 -27 105 -23 205 10 78 25 32 25 -60 0z"/>
<path d="M1990 3560 c-14 -4 -47 -8 -73 -9 -31 -1 -46 -5 -42 -12 4 -5 19 -8 33 -5 15 2 48 8 75 11 26 3 47 10 47 16 0 10 -5 10 -40 -1z"/>
<path d="M1535 3482 c-101 -38 -171 -51 -230 -41 -49 8 -57 3 -19 -12 17 -6 55 -9 89 -6 76 7 272 76 255 90 -3 2 -45 -12 -95 -31z"/>
<path d="M907 3481 c16 -8 43 -11 70 -8 77 8 66 22 -17 22 -73 0 -77 -1 -53 -14z"/>
<path d="M1907 3484 c-31 -8 -88 -18 -125 -23 l-67 -8 57 -2 c59 -1 206 26 223 41 13 11 -19 8 -88 -8z"/>
<path d="M1519 3425 c-107 -55 -186 -78 -251 -73 -65 5 -78 -7 -20 -18 24 -5 59 -1 100 9 74 20 252 96 252 108 0 14 -10 10 -81 -26z"/>
<path d="M1942 3410 c-51 -18 -158 -37 -252 -43 -25 -2 -8 -4 36 -5 58 -1 109 5 177 22 101 26 151 46 112 45 -11 0 -44 -9 -73 -19z"/>
<path d="M870 3375 c-44 -17 -93 -18 -108 -3 -6 6 -15 9 -18 5 -10 -10 -2 -16 32 -26 30 -8 140 13 159 30 14 13 -24 10 -65 -6z"/>
<path d="M890 3330 c-51 -21 -115 -25 -156 -10 -34 13 -43 6 -12 -11 12 -7 46 -13 73 -13 52 0 145 29 145 45 0 5 -1 9 -2 8 -2 -1 -23 -9 -48 -19z"/>
<path d="M1516 3334 c-90 -49 -230 -69 -315 -44 -43 12 -54 5 -15 -11 44 -18 135 -23 195 -10 61 13 169 59 169 72 0 11 1 11 -34 -7z"/>
<path d="M621 3274 c28 -27 87 -34 184 -22 50 6 95 15 100 21 7 6 -3 7 -30 3 -105 -18 -191 -19 -223 -2 -39 20 -51 20 -31 0z"/>
<path d="M4892 795 c-139 -146 -229 -301 -306 -524 -42 -120 -79 -261 -72 -269 6 -6 7 -4 41 118 88 312 178 485 352 670 47 49 80 90 75 90 -5 0 -46 -38 -90 -85z"/>
<path d="M8975 704 c-225 -98 -534 -253 -680 -341 -221 -134 -533 -349 -522 -359 3 -3 54 30 113 72 246 175 468 311 717 438 150 76 505 236 525 236 6 0 14 5 17 10 12 20 -23 8 -170 -56z"/>
</g>
</svg>